<svg xmlns="http://www.w3.org/2000/svg" xmlns:xlink="http://www.w3.org/1999/xlink" width="1913" height="1236" viewBox="0 0 1913 1236">
  <defs>
    <clipPath id="clip-Web_1920_1">
      <rect width="1913" height="1236"/>
    </clipPath>
  </defs>
  <g id="Web_1920_1" data-name="Web 1920 – 1" clip-path="url(#clip-Web_1920_1)">
    <rect width="1913" height="1236" fill="#f4f4f4"/>
    <path id="Path_23" data-name="Path 23" d="M0,0H1938.184V1230.117s-723.316-55.266-1207.862-22.106S0,1122.1,0,1122.1Z" transform="translate(-25.184)" fill="#82cef9"/>
    <path id="Path_1" data-name="Path 1" d="M1242.19,114.121c456.128,0,360.472,197.551,360.472,585.188s426.784,460.009-29.344,460.009c-92.594,0-287.448,126.479-573.105,105.015s-445.994-46.371-569.523-190.871c-156.78-183.394-153.738-524.4-126.7-613.846,41.9-138.586,175.2-286.3,245.471-373.285C619.225-.019,1098.507,114.121,1242.19,114.121Z" transform="translate(675.121 -130)" fill="#4f5af3"/>
    <g id="Group_1" data-name="Group 1" transform="translate(1152 290)">
      <path id="Path_2" data-name="Path 2" d="M501.189,80.561l3.47-5.362a80.393,80.393,0,0,0-3.56-8.333l-2.243,1.812,1.776-2.745c-1.693-3.333-3.025-5.432-3.025-5.432s-6.958,10.965-9.283,22.575l4.452,6.881-4.929-3.981a32.52,32.52,0,0,0-.27,4.078c0,13.75,4.491,24.9,10.03,24.9s10.03-11.146,10.03-24.9a42.82,42.82,0,0,0-2.295-12.847Z" transform="translate(-158.827 -60.501)" fill="#e6e6e6"/>
      <path id="Path_3" data-name="Path 3" d="M525.747,92.481l6.245-1.338a80.4,80.4,0,0,0,3.375-8.409l-2.868-.305,3.2-.685c1.159-3.554,1.7-5.98,1.7-5.98s-12.674,2.833-22.527,9.4l-1.717,8.014-.67-6.3a32.524,32.524,0,0,0-3.075,2.693c-9.722,9.722-14.429,20.779-10.512,24.7s14.974-.789,24.7-10.512a42.818,42.818,0,0,0,7.462-10.707Z" transform="translate(-158.827 -60.501)" fill="#e6e6e6"/>
      <path id="Path_4" data-name="Path 4" d="M528.028,145.685c-14.481.926-30.26-.054-47.046,0V107.253c14.791,2.3,30.565,2.066,47.046,0Z" transform="translate(-158.827 -60.501)" fill="#e6e6e6"/>
      <path id="Path_5" data-name="Path 5" d="M631.628,175.652l2.263-3.5a52.421,52.421,0,0,0-2.321-5.434l-1.463,1.182,1.158-1.79c-1.1-2.173-1.973-3.543-1.973-3.543a50.242,50.242,0,0,0-6.054,14.722l2.9,4.487-3.214-2.6a21.222,21.222,0,0,0-.176,2.66c0,8.967,2.928,16.236,6.541,16.236s6.541-7.269,6.541-16.236a27.925,27.925,0,0,0-1.5-8.378Z" transform="translate(-158.827 -60.501)" fill="#e6e6e6"/>
      <path id="Path_6" data-name="Path 6" d="M647.644,183.426l4.073-.873a52.416,52.416,0,0,0,2.2-5.484l-1.87-.2,2.085-.447c.756-2.317,1.11-3.9,1.11-3.9a50.24,50.24,0,0,0-14.691,6.129l-1.12,5.226-.437-4.109a21.211,21.211,0,0,0-2.005,1.756c-6.34,6.34-9.41,13.551-6.855,16.105s9.765-.515,16.105-6.855a27.925,27.925,0,0,0,4.866-6.982Z" transform="translate(-158.827 -60.501)" fill="#e6e6e6"/>
      <path id="Path_7" data-name="Path 7" d="M649.131,218.122c-9.444.6-19.734-.035-30.681,0V193.059a110.584,110.584,0,0,0,30.681,0Z" transform="translate(-158.827 -60.501)" fill="#e6e6e6"/>
      <path id="Path_8" data-name="Path 8" d="M643.3,292.4c-8.339.533-17.425-.031-27.091,0V270.268a97.645,97.645,0,0,0,27.091,0Z" transform="translate(-158.827 -60.501)" fill="#e6e6e6"/>
      <rect id="Rectangle_2" data-name="Rectangle 2" width="364.547" height="10.183" transform="translate(167.508 82.481)" fill="#e6e6e6"/>
      <rect id="Rectangle_3" data-name="Rectangle 3" width="364.547" height="10.183" transform="translate(167.508 154.78)" fill="#e6e6e6"/>
      <rect id="Rectangle_4" data-name="Rectangle 4" width="364.547" height="10.183" transform="translate(167.508 227.078)" fill="#e6e6e6"/>
      <circle id="Ellipse_1" data-name="Ellipse 1" cx="20.366" cy="20.366" r="20.366" transform="translate(450.592 177.182)" fill="#e6e6e6"/>
      <circle id="Ellipse_2" data-name="Ellipse 2" cx="16.293" cy="16.293" r="16.293" transform="translate(454.665 181.255)" fill="#fff"/>
      <circle id="Ellipse_3" data-name="Ellipse 3" cx="4.073" cy="4.073" r="4.073" transform="translate(466.885 193.475)" fill="#e6e6e6"/>
      <rect id="Rectangle_5" data-name="Rectangle 5" width="2.037" height="16.293" transform="translate(485.214 196.529) rotate(90)" fill="#e6e6e6"/>
      <rect id="Rectangle_6" data-name="Rectangle 6" width="2.037" height="16.293" transform="translate(471.976 199.584) rotate(180)" fill="#e6e6e6"/>
      <rect id="Rectangle_7" data-name="Rectangle 7" width="13.475" height="53.339" transform="translate(339.725 105.104)" fill="#e6e6e6"/>
      <rect id="Rectangle_8" data-name="Rectangle 8" width="13.475" height="6.176" transform="translate(339.725 113.526)" fill="#ccc"/>
      <rect id="Rectangle_9" data-name="Rectangle 9" width="13.475" height="6.176" transform="translate(339.725 140.476)" fill="#ccc"/>
      <rect id="Rectangle_10" data-name="Rectangle 10" width="13.475" height="53.339" transform="translate(318.951 105.104)" fill="#e6e6e6"/>
      <rect id="Rectangle_11" data-name="Rectangle 11" width="13.475" height="6.176" transform="translate(318.951 113.526)" fill="#ccc"/>
      <rect id="Rectangle_12" data-name="Rectangle 12" width="13.475" height="6.176" transform="translate(318.951 140.476)" fill="#ccc"/>
      <rect id="Rectangle_13" data-name="Rectangle 13" width="13.475" height="53.339" transform="matrix(0.896, -0.444, 0.444, 0.896, 352.735, 110.863)" fill="#e6e6e6"/>
      <rect id="Rectangle_14" data-name="Rectangle 14" width="13.475" height="6.176" transform="matrix(0.896, -0.444, 0.444, 0.896, 356.472, 118.411)" fill="#ccc"/>
      <rect id="Rectangle_15" data-name="Rectangle 15" width="13.475" height="6.176" transform="matrix(0.896, -0.444, 0.444, 0.896, 368.429, 142.562)" fill="#ccc"/>
      <rect id="Rectangle_16" data-name="Rectangle 16" width="13.475" height="53.339" transform="translate(219.567 177.403)" fill="#e6e6e6"/>
      <rect id="Rectangle_17" data-name="Rectangle 17" width="13.475" height="6.176" transform="translate(219.567 185.825)" fill="#ccc"/>
      <rect id="Rectangle_18" data-name="Rectangle 18" width="13.475" height="6.176" transform="translate(219.567 212.775)" fill="#ccc"/>
      <rect id="Rectangle_19" data-name="Rectangle 19" width="13.475" height="53.339" transform="translate(198.793 177.403)" fill="#e6e6e6"/>
      <rect id="Rectangle_20" data-name="Rectangle 20" width="13.475" height="6.176" transform="translate(198.793 185.825)" fill="#ccc"/>
      <rect id="Rectangle_21" data-name="Rectangle 21" width="13.475" height="6.176" transform="translate(198.793 212.775)" fill="#ccc"/>
      <rect id="Rectangle_22" data-name="Rectangle 22" width="13.475" height="53.339" transform="matrix(0.896, -0.444, 0.444, 0.896, 232.576, 183.161)" fill="#e6e6e6"/>
      <rect id="Rectangle_23" data-name="Rectangle 23" width="13.475" height="6.176" transform="matrix(0.896, -0.444, 0.444, 0.896, 236.313, 190.709)" fill="#ccc"/>
      <rect id="Rectangle_24" data-name="Rectangle 24" width="13.475" height="6.176" transform="matrix(0.896, -0.444, 0.444, 0.896, 248.271, 214.86)" fill="#ccc"/>
      <rect id="Rectangle_25" data-name="Rectangle 25" width="13.475" height="53.339" transform="translate(345.835 177.403)" fill="#e6e6e6"/>
      <rect id="Rectangle_26" data-name="Rectangle 26" width="13.475" height="6.176" transform="translate(345.835 185.825)" fill="#ccc"/>
      <rect id="Rectangle_27" data-name="Rectangle 27" width="13.475" height="6.176" transform="translate(345.835 212.775)" fill="#ccc"/>
      <rect id="Rectangle_28" data-name="Rectangle 28" width="13.475" height="53.339" transform="translate(325.061 177.403)" fill="#e6e6e6"/>
      <rect id="Rectangle_29" data-name="Rectangle 29" width="13.475" height="6.176" transform="translate(325.061 185.825)" fill="#ccc"/>
      <rect id="Rectangle_30" data-name="Rectangle 30" width="13.475" height="6.176" transform="translate(325.061 212.775)" fill="#ccc"/>
      <rect id="Rectangle_31" data-name="Rectangle 31" width="13.475" height="53.339" transform="matrix(0.896, -0.444, 0.444, 0.896, 358.844, 183.161)" fill="#e6e6e6"/>
      <rect id="Rectangle_32" data-name="Rectangle 32" width="13.475" height="6.176" transform="matrix(0.896, -0.444, 0.444, 0.896, 362.581, 190.709)" fill="#ccc"/>
      <rect id="Rectangle_33" data-name="Rectangle 33" width="13.475" height="6.176" transform="matrix(0.896, -0.444, 0.444, 0.896, 374.538, 214.861)" fill="#ccc"/>
      <rect id="Rectangle_34" data-name="Rectangle 34" width="53.556" height="53.556" transform="translate(449.987 32.646)" fill="#e6e6e6"/>
      <rect id="Rectangle_35" data-name="Rectangle 35" width="32.134" height="32.134" transform="translate(460.699 43.357)" fill="#ccc"/>
      <path id="Path_9" data-name="Path 9" d="M470,54.143l6.814,11.8,6.813,11.8H456.373l6.814-11.8Z" fill="#e6e6e6"/>
      <path id="Path_10" data-name="Path 10" d="M481.839,56.4l6.814,11.8L495.466,80H468.212l6.814-11.8Z" fill="#e6e6e6"/>
      <circle id="Ellipse_4" data-name="Ellipse 4" cx="3.946" cy="3.946" r="3.946" transform="translate(482.685 45.048)" fill="#e6e6e6"/>
      <rect id="Rectangle_36" data-name="Rectangle 36" width="53.556" height="53.556" transform="translate(179.123 32.646)" fill="#e6e6e6"/>
      <rect id="Rectangle_37" data-name="Rectangle 37" width="32.134" height="32.134" transform="translate(189.834 43.357)" fill="#ccc"/>
      <path id="Path_11" data-name="Path 11" d="M199.136,54.143l6.813,11.8,6.814,11.8H185.509l6.813-11.8Z" fill="#e6e6e6"/>
      <path id="Path_12" data-name="Path 12" d="M210.975,56.4l6.813,11.8L224.6,80H197.348l6.813-11.8Z" fill="#e6e6e6"/>
      <circle id="Ellipse_5" data-name="Ellipse 5" cx="3.946" cy="3.946" r="3.946" transform="translate(211.82 45.048)" fill="#e6e6e6"/>
      <path id="Path_13" data-name="Path 13" d="M230.324,458.345l3.47-5.362a80.388,80.388,0,0,0-3.56-8.332l-2.244,1.812,1.776-2.745c-1.693-3.332-3.025-5.432-3.025-5.432s-6.958,10.965-9.283,22.575l4.452,6.881-4.929-3.981a32.522,32.522,0,0,0-.27,4.078c0,13.75,4.491,24.9,10.03,24.9s10.03-11.146,10.03-24.9a42.819,42.819,0,0,0-2.295-12.847Z" transform="translate(-158.827 -60.501)" fill="#63ff68"/>
      <path id="Path_14" data-name="Path 14" d="M254.882,470.266l6.245-1.338a80.389,80.389,0,0,0,3.375-8.409l-2.868-.305,3.2-.685c1.159-3.554,1.7-5.98,1.7-5.98s-12.674,2.833-22.527,9.4l-1.717,8.014-.67-6.3a32.523,32.523,0,0,0-3.075,2.693c-9.722,9.722-14.429,20.779-10.512,24.7s14.974-.789,24.7-10.512a42.819,42.819,0,0,0,7.462-10.707Z" transform="translate(-158.827 -60.501)" fill="#63ff68"/>
      <path id="Path_15" data-name="Path 15" d="M257.163,523.469c-14.481.926-30.26-.054-47.046,0V485.038c14.791,2.3,30.565,2.066,47.046,0Z" transform="translate(-158.827 -60.501)" fill="#3f3d56"/>
      <rect id="Rectangle_38" data-name="Rectangle 38" width="195.511" height="253.554" transform="translate(500.998 475.031)" fill="#e6e6e6"/>
      <rect id="Rectangle_39" data-name="Rectangle 39" width="10.183" height="240.316" transform="translate(92.664 488.269)" fill="#e6e6e6"/>
      <rect id="Rectangle_40" data-name="Rectangle 40" width="696.509" height="20.366" transform="translate(0 457.72)" fill="#e6e6e6"/>
      <rect id="Rectangle_41" data-name="Rectangle 41" width="20.366" height="20.366" transform="translate(87.573 478.086)" fill="#e6e6e6"/>
      <path id="Path_16" data-name="Path 16" d="M614.155,489.8l-1.146,4.583H584.5l-1.718-4.583H510.162v46.842H687.344V489.8Z" fill="#3f3d56"/>
      <path id="Path_17" data-name="Path 17" d="M614.155,548.857l-1.146,4.582H584.5l-1.718-4.582H510.162V595.7H687.344V548.857Z" fill="#3f3d56"/>
      <path id="Path_18" data-name="Path 18" d="M614.155,607.918l-1.146,4.582H584.5l-1.718-4.582H510.162v46.841H687.344V607.918Z" fill="#3f3d56"/>
      <path id="Path_19" data-name="Path 19" d="M614.155,666.979l-1.146,4.582H584.5l-1.718-4.582H510.162V713.82H687.344V666.979Z" fill="#3f3d56"/>
      <path id="Path_20" data-name="Path 20" d="M377.785,454.665H317.706l2.036-26.475h56.006Z" fill="#e6e6e6"/>
      <rect id="Rectangle_42" data-name="Rectangle 42" width="67.207" height="6.11" transform="translate(314.651 451.611)" fill="#e6e6e6"/>
      <path id="Path_21" data-name="Path 21" d="M621.639,318.128H392.015a6.11,6.11,0,0,0-6.11,6.11V464.252H627.748V324.237a6.11,6.11,0,0,0-6.108-6.109Z" transform="translate(-158.827 -60.501)" fill="#3f3d56"/>
      <path id="Path_22" data-name="Path 22" d="M385.9,464.252v22.911a6.11,6.11,0,0,0,6.11,6.11H621.639a6.11,6.11,0,0,0,6.11-6.11V464.252Z" transform="translate(-158.827 -60.501)" fill="#e6e6e6"/>
      <rect id="Rectangle_43" data-name="Rectangle 43" width="217.914" height="122.195" transform="translate(239.298 270.355)" fill="#fff"/>
      <circle id="Ellipse_6" data-name="Ellipse 6" cx="6.11" cy="6.11" r="6.11" transform="translate(342.144 411.897)" fill="#3f3d56"/>
      <rect id="Rectangle_44" data-name="Rectangle 44" width="58.756" height="3.373" transform="translate(309.964 304.848)" fill="#3f3d56"/>
      <rect id="Rectangle_45" data-name="Rectangle 45" width="90.732" height="3.373" transform="translate(309.964 317.151)" fill="#6c63ff"/>
      <rect id="Rectangle_46" data-name="Rectangle 46" width="73.945" height="3.373" transform="translate(309.964 328.742)" fill="#6c63ff"/>
      <rect id="Rectangle_47" data-name="Rectangle 47" width="43.168" height="3.373" transform="translate(309.964 340.29)" fill="#3f3d56"/>
      <rect id="Rectangle_48" data-name="Rectangle 48" width="65.151" height="3.373" transform="translate(309.964 351.837)" fill="#3f3d56"/>
      <rect id="Rectangle_49" data-name="Rectangle 49" width="7.195" height="7.195" transform="translate(283.184 303.649)" fill="#3f3d56"/>
      <rect id="Rectangle_50" data-name="Rectangle 50" width="7.195" height="7.195" transform="translate(283.184 315.24)" fill="#6c63ff"/>
      <rect id="Rectangle_51" data-name="Rectangle 51" width="7.195" height="7.195" transform="translate(283.184 326.831)" fill="#6c63ff"/>
      <rect id="Rectangle_52" data-name="Rectangle 52" width="7.195" height="7.195" transform="translate(283.184 338.423)" fill="#3f3d56"/>
      <rect id="Rectangle_53" data-name="Rectangle 53" width="7.195" height="7.195" transform="translate(283.184 350.014)" fill="#3f3d56"/>
    </g>
    <g id="Group_2" data-name="Group 2" transform="translate(734 -549)">
      <g id="Union_2" data-name="Union 2" transform="translate(634 1346)" fill="#343438">
        <path d="M 19.49980545043945 91.49980926513672 L 6.00029993057251 91.49980926513672 L 0.5000057220458984 91.49980926513672 L 0.5000057220458984 52.33050155639648 L 0.5000057220458984 6.000300884246826 C 0.5000057220458984 2.967430114746094 2.967429161071777 0.5000066757202148 6.00029993057251 0.5000066757202148 C 9.032676696777344 0.5000066757202148 11.49969959259033 2.967430114746094 11.49969959259033 6.000300884246826 L 11.49969959259033 52.33050155639648 L 11.49969959259033 52.83050155639648 L 11.99969959259033 52.83050155639648 L 19.49980545043945 52.83050155639648 L 19.49980545043945 91.49980926513672 Z" stroke="none"/>
        <path d="M 18.99979972839355 90.99980163574219 L 18.99979972839355 53.33050155639648 L 11.99969959259033 53.33050155639648 L 10.99969959259033 53.33050155639648 L 10.99969959259033 52.33050155639648 L 10.99969959259033 6.000300884246826 C 10.99969959259033 3.243125915527344 8.756975173950195 1.000000834465027 6.00029993057251 1.000000834465027 C 3.243124961853027 1.000000834465027 0.9999998807907104 3.243125915527344 0.9999998807907104 6.000300884246826 L 0.9999998807907104 52.33050155639648 L 0.9999998807907104 90.99980163574219 L 6.00029993057251 90.99980163574219 L 18.99979972839355 90.99980163574219 M 19.99979972839355 91.99980163574219 L 6.00029993057251 91.99980163574219 L -1.358032193365943e-07 91.99980163574219 L -1.358032193365943e-07 52.33050155639648 L -1.358032193365943e-07 6.000300884246826 C -1.358032193365943e-07 2.686500787734985 2.686499834060669 8.178710686479462e-07 6.00029993057251 8.178710686479462e-07 C 9.31410026550293 8.178710686479462e-07 11.99969959259033 2.686500787734985 11.99969959259033 6.000300884246826 L 11.99969959259033 52.33050155639648 L 19.99979972839355 52.33050155639648 L 19.99979972839355 91.99980163574219 Z" stroke="none" fill="#707070"/>
      </g>
      <g id="Ellipse_9" data-name="Ellipse 9" transform="translate(837 1570)" fill="#21212e" stroke="#707070" stroke-width="1">
        <circle cx="11" cy="11" r="11" stroke="none"/>
        <circle cx="11" cy="11" r="10.5" fill="none"/>
      </g>
      <g id="Ellipse_7" data-name="Ellipse 7" transform="translate(670 1570)" fill="#21212e" stroke="#707070" stroke-width="1">
        <circle cx="11" cy="11" r="11" stroke="none"/>
        <circle cx="11" cy="11" r="10.5" fill="none"/>
      </g>
      <g id="Rectangle_60" data-name="Rectangle 60" transform="translate(762 1551)" fill="#ccccca" stroke="#707070" stroke-width="1">
        <rect width="6" height="20" stroke="none"/>
        <rect x="0.5" y="0.5" width="5" height="19" fill="none"/>
      </g>
      <g id="Rectangle_59" data-name="Rectangle 59" transform="translate(677 1555)" fill="#ccccca" stroke="#707070" stroke-width="1">
        <rect width="6" height="20" stroke="none"/>
        <rect x="0.5" y="0.5" width="5" height="19" fill="none"/>
      </g>
      <g id="Rectangle_61" data-name="Rectangle 61" transform="translate(761 1550)" fill="#ccccca" stroke="#707070" stroke-width="1">
        <rect width="6" height="20" stroke="none"/>
        <rect x="0.5" y="0.5" width="5" height="19" fill="none"/>
      </g>
      <g id="Rectangle_62" data-name="Rectangle 62" transform="translate(845 1556)" fill="#ccccca" stroke="#707070" stroke-width="1">
        <rect width="6" height="20" stroke="none"/>
        <rect x="0.5" y="0.5" width="5" height="19" fill="none"/>
      </g>
      <g id="Rectangle_54" data-name="Rectangle 54" transform="translate(761 1350)" fill="#ccccca" stroke="#707070" stroke-width="1">
        <rect width="6" height="160" stroke="none"/>
        <rect x="0.5" y="0.5" width="5" height="159" fill="none"/>
      </g>
      <g id="Rectangle_56" data-name="Rectangle 56" transform="translate(671.956 1549.738) rotate(-19)" fill="#21212e" stroke="#707070" stroke-width="1">
        <rect width="94" height="16" rx="8" stroke="none"/>
        <rect x="0.5" y="0.5" width="93" height="15" rx="7.5" fill="none"/>
      </g>
      <g id="Rectangle_57" data-name="Rectangle 57" transform="translate(766.165 1520.134) rotate(19)" fill="#21212e" stroke="#707070" stroke-width="1">
        <rect width="94" height="16" rx="8" stroke="none"/>
        <rect x="0.5" y="0.5" width="93" height="15" rx="7.5" fill="none"/>
      </g>
      <g id="Rectangle_58" data-name="Rectangle 58" transform="translate(772 1496) rotate(90)" fill="#21212e" stroke="#707070" stroke-width="1">
        <rect width="70" height="16" rx="8" stroke="none"/>
        <rect x="0.5" y="0.5" width="69" height="15" rx="7.5" fill="none"/>
      </g>
      <g id="Union_1" data-name="Union 1" transform="translate(756 1568)" fill="#21212e">
        <path d="M 11.99970054626465 24.50020027160645 C 10.34444046020508 24.50020027160645 8.500100135803223 20.18808937072754 8.500100135803223 14.00040054321289 L 7.500100135803223 14.00040054321289 C 7.500100135803223 20.18808937072754 5.655290126800537 24.50020027160645 3.999600172042847 24.50020027160645 C 2.344340085983276 24.50020027160645 0.5000001192092896 20.18808937072754 0.5000001192092896 14.00040054321289 C 0.5000001192092896 7.812180042266846 2.344340085983276 3.49970006942749 3.999600172042847 3.49970006942749 C 4.150820255279541 3.49970006942749 4.29865026473999 3.533600091934204 4.451550006866455 3.603340148925781 L 4.9381103515625 3.825270175933838 L 5.126870155334473 3.324910163879395 C 5.794150352478027 1.556040167808533 6.868259906768799 0.5000001192092896 8.000100135803223 0.5000001192092896 C 9.1314697265625 0.5000001192092896 10.20526027679443 1.556060194969177 10.87248039245605 3.324970245361328 L 11.06124973297119 3.825420141220093 L 11.54786014556885 3.603400230407715 C 11.70079040527344 3.533620119094849 11.84858989715576 3.49970006942749 11.99970054626465 3.49970006942749 C 13.6553897857666 3.49970006942749 15.50020027160645 7.812180042266846 15.50020027160645 14.00040054321289 C 15.50020027160645 20.18808937072754 13.6553897857666 24.50020027160645 11.99970054626465 24.50020027160645 Z" stroke="none"/>
        <path d="M 11.99970054626465 24.00020027160645 C 12.47591018676758 24.00020027160645 13.24468994140625 23.2075309753418 13.8887300491333 21.4366397857666 C 14.60546970367432 19.46586036682129 15.00020027160645 16.82494926452637 15.00020027160645 14.00040054321289 C 15.00020027160645 11.17545032501221 14.60546970367432 8.534259796142578 13.8887300491333 6.563350200653076 C 13.24470043182373 4.792400360107422 12.47591018676758 3.99970006942749 11.99970054626465 3.99970006942749 C 11.92172050476074 3.99970006942749 11.84181022644043 4.018860340118408 11.75541019439697 4.058279991149902 L 10.78219032287598 4.502340316772461 L 10.40466022491455 3.501430034637451 C 9.822669982910156 1.958490133285522 8.901300430297852 1.00000011920929 8.000100135803223 1.00000011920929 C 7.098430156707764 1.00000011920929 6.176730155944824 1.9584801197052 5.594690322875977 3.501390218734741 L 5.217180252075195 4.502120018005371 L 4.244060039520264 4.058259963989258 C 4.157670021057129 4.018850326538086 4.077710151672363 3.99970006942749 3.999600172042847 3.99970006942749 C 3.523710250854492 3.99970006942749 2.755290031433105 4.7923903465271 2.111380100250244 6.563300132751465 C 1.394690155982971 8.534350395202637 1.00000011920929 11.17555999755859 1.00000011920929 14.00040054321289 C 1.00000011920929 16.8248405456543 1.394690155982971 19.46577072143555 2.111370086669922 21.43668937683105 C 2.755300045013428 23.20754051208496 3.523710250854492 24.00020027160645 3.999600172042847 24.00020027160645 C 4.475810050964355 24.00020027160645 5.244590282440186 23.2075309753418 5.888629913330078 21.4366397857666 C 6.605370044708252 19.46586036682129 7.000100135803223 16.82494926452637 7.000100135803223 14.00040054321289 L 9.000100135803223 14.00040054321289 C 9.000100135803223 16.8248405456543 9.394789695739746 19.46577072143555 10.11147022247314 21.43668937683105 C 10.75539970397949 23.20754051208496 11.52381038665771 24.00020027160645 11.99970054626465 24.00020027160645 M 11.99970054626465 25.00020027160645 C 9.79110050201416 25.00020027160645 8.000100135803223 20.07539939880371 8.000100135803223 14.00040054321289 C 8.000100135803223 20.07539939880371 6.209100246429443 25.00020027160645 3.999600172042847 25.00020027160645 C 1.791000127792358 25.00020027160645 1.358032193365943e-07 20.07539939880371 1.358032193365943e-07 14.00040054321289 C 1.358032193365943e-07 7.924499988555908 1.791000127792358 2.99970006942749 3.999600172042847 2.99970006942749 C 4.224270343780518 2.99970006942749 4.444479942321777 3.050560235977173 4.659049987792969 3.148430109024048 C 5.374690055847168 1.251370191574097 6.603790283203125 1.358032193365943e-07 8.000100135803223 1.358032193365943e-07 C 9.395839691162109 1.358032193365943e-07 10.6247501373291 1.251450181007385 11.34031009674072 3.148510217666626 C 11.55481052398682 3.050640106201172 11.77511978149414 2.99970006942749 11.99970054626465 2.99970006942749 C 14.20919990539551 2.99970006942749 16.00020027160645 7.924499988555908 16.00020027160645 14.00040054321289 C 16.00020027160645 20.07539939880371 14.20919990539551 25.00020027160645 11.99970054626465 25.00020027160645 Z" stroke="none" fill="#707070"/>
      </g>
      <g id="Ellipse_12" data-name="Ellipse 12" transform="translate(669 1571)" fill="#21212e" stroke="#707070" stroke-width="1">
        <circle cx="11" cy="11" r="11" stroke="none"/>
        <circle cx="11" cy="11" r="10.5" fill="none"/>
      </g>
      <g id="Ellipse_13" data-name="Ellipse 13" transform="translate(838 1571)" fill="#21212e" stroke="#707070" stroke-width="1">
        <circle cx="11" cy="11" r="11" stroke="none"/>
        <circle cx="11" cy="11" r="10.5" fill="none"/>
      </g>
      <g id="Union_3" data-name="Union 3" transform="translate(874 1346)" fill="#343438">
        <path d="M 19.49980545043945 91.49980926513672 L 13.9995002746582 91.49980926513672 L 0.5000057220458984 91.49980926513672 L 0.5000057220458984 52.83050155639648 L 8.000100135803223 52.83050155639648 L 8.500100135803223 52.83050155639648 L 8.500100135803223 52.33050155639648 L 8.500100135803223 6.000300884246826 C 8.500100135803223 2.967430114746094 10.96712303161621 0.5000066757202148 13.9995002746582 0.5000066757202148 C 17.03238296508789 0.5000066757202148 19.49980545043945 2.967430114746094 19.49980545043945 6.000300884246826 L 19.49980545043945 86.00040435791016 L 19.49980545043945 91.49980926513672 Z" stroke="none"/>
        <path d="M 18.99979972839355 90.99980163574219 L 18.99979972839355 86.00040435791016 L 18.99979972839355 6.000300884246826 C 18.99979972839355 3.243125915527344 16.75667572021484 1.000000834465027 13.9995002746582 1.000000834465027 C 11.24282455444336 1.000000834465027 9.000100135803223 3.243125915527344 9.000100135803223 6.000300884246826 L 9.000100135803223 52.33050155639648 L 9.000100135803223 53.33050155639648 L 8.000100135803223 53.33050155639648 L 0.9999998807907104 53.33050155639648 L 0.9999998807907104 90.99980163574219 L 13.9995002746582 90.99980163574219 L 18.99979972839355 90.99980163574219 M 19.99979972839355 91.99980163574219 L 13.9995002746582 91.99980163574219 L -1.358032193365943e-07 91.99980163574219 L -1.358032193365943e-07 52.33050155639648 L 8.000100135803223 52.33050155639648 L 8.000100135803223 6.000300884246826 C 8.000100135803223 2.686500787734985 10.68569946289063 8.178710686479462e-07 13.9995002746582 8.178710686479462e-07 C 17.31329917907715 8.178710686479462e-07 19.99979972839355 2.686500787734985 19.99979972839355 6.000300884246826 L 19.99979972839355 86.00040435791016 L 19.99979972839355 91.99980163574219 Z" stroke="none" fill="#707070"/>
      </g>
      <g id="Rectangle_1" data-name="Rectangle 1" transform="translate(649 1177)" fill="#21212e" stroke="#707070" stroke-width="1">
        <rect width="230" height="304" rx="54" stroke="none"/>
        <rect x="0.5" y="0.5" width="229" height="303" rx="53.5" fill="none"/>
      </g>
    </g>
    <g id="Group_3" data-name="Group 3" transform="translate(1433 -599)">
      <g id="Rectangle_68" data-name="Rectangle 68" transform="translate(235 1340)" fill="#fff" stroke="#707070" stroke-width="1">
        <rect width="166" height="7" stroke="none"/>
        <rect x="0.5" y="0.5" width="165" height="6" fill="none"/>
      </g>
      <g id="Rectangle_69" data-name="Rectangle 69" transform="translate(232 1333)" fill="#fff" stroke="#707070" stroke-width="1">
        <rect width="166" height="7" stroke="none"/>
        <rect x="0.5" y="0.5" width="165" height="6" fill="none"/>
      </g>
      <g id="Rectangle_70" data-name="Rectangle 70" transform="translate(235 1326)" fill="#fff" stroke="#707070" stroke-width="1">
        <rect width="166" height="7" stroke="none"/>
        <rect x="0.5" y="0.5" width="165" height="6" fill="none"/>
      </g>
      <g id="Rectangle_71" data-name="Rectangle 71" transform="translate(232 1320)" fill="#fff" stroke="#707070" stroke-width="1">
        <rect width="166" height="6" stroke="none"/>
        <rect x="0.5" y="0.5" width="165" height="5" fill="none"/>
      </g>
      <g id="Rectangle_72" data-name="Rectangle 72" transform="translate(235 1313)" fill="#fff" stroke="#707070" stroke-width="1">
        <rect width="166" height="7" stroke="none"/>
        <rect x="0.5" y="0.5" width="165" height="6" fill="none"/>
      </g>
      <g id="Rectangle_73" data-name="Rectangle 73" transform="translate(239 1304)" fill="#fff" stroke="#707070" stroke-width="1">
        <rect width="166" height="9" stroke="none"/>
        <rect x="0.5" y="0.5" width="165" height="8" fill="none"/>
      </g>
      <g id="Rectangle_74" data-name="Rectangle 74" transform="translate(235 1297)" fill="#fff" stroke="#707070" stroke-width="1">
        <rect width="166" height="7" stroke="none"/>
        <rect x="0.5" y="0.5" width="165" height="6" fill="none"/>
      </g>
      <g id="Rectangle_75" data-name="Rectangle 75" transform="translate(232 1290)" fill="#fff" stroke="#707070" stroke-width="1">
        <rect width="166" height="7" stroke="none"/>
        <rect x="0.5" y="0.5" width="165" height="6" fill="none"/>
      </g>
    </g>
  </g>
</svg>
